<?xml version="1.0" encoding="utf-8"?>
<!-- Generator: Adobe Illustrator 15.1.0, SVG Export Plug-In . SVG Version: 6.00 Build 0)  -->
<!DOCTYPE svg PUBLIC "-//W3C//DTD SVG 1.1//EN" "http://www.w3.org/Graphics/SVG/1.1/DTD/svg11.dtd">
<svg version="1.1" xmlns="http://www.w3.org/2000/svg" xmlns:xlink="http://www.w3.org/1999/xlink" x="0px" y="0px" width="792px"
	 height="612px" viewBox="0 0 792 612" enable-background="new 0 0 792 612" xml:space="preserve">
<g id="Layer_2">
</g>
<g id="Layer_3">
	<polygon fill="#C22036" points="362.89,117.396 261.418,313.945 362.89,500.992 433.749,500.992 535.956,304.725 431.536,117.396 	
		"/>
</g>
<g id="Layer_1">
	<polygon fill="#010101" points="558.734,494.607 713.28,494.607 725.855,507.377 558.734,507.377 	"/>
	<rect x="310.524" y="494.607" fill="#010101" width="170.723" height="12.77"/>
	<polygon fill="#010101" points="233.889,494.607 78.492,494.607 67.423,507.377 233.889,507.377 	"/>
	
		<line fill="none" stroke="#010101" stroke-width="13" stroke-miterlimit="10" x1="362.89" y1="498.438" x2="149.803" y2="111.009"/>
	
		<line fill="none" stroke="#010101" stroke-width="13" stroke-miterlimit="10" x1="644.733" y1="111.009" x2="427.18" y2="503.548"/>
	<rect x="310.098" y="104.623" fill="#010101" width="171.576" height="12.772"/>
	<polygon fill="#010101" points="558.734,104.623 558.734,117.396 713.28,117.396 724.776,104.623 	"/>
	<polygon fill="#010101" points="233.464,104.623 233.464,117.396 77.216,117.396 66.145,104.623 	"/>
	<polygon fill="#010101" points="336.658,113.908 124.217,498.438 193.647,495.912 398.619,113.908 	"/>
	<polygon fill="#010101" points="395.886,115.844 603.314,498.438 669.979,498.438 455.325,113.908 	"/>
</g>
</svg>
